<svg version="1" xmlns="http://www.w3.org/2000/svg" width="800" height="800" viewBox="0 0 600.000000 600.000000"><path d="M203.9 42.3c-9.5 3.3-17.4 8.3-25.4 16.2-8.7 8.6-11 13.2-21.1 40.2l-7.9 21.3h-40.3c-46.6 0-48.7.3-65.2 8.2-15.3 7.4-28.4 20.5-35.8 35.8C-.6 182.3 0 169.2 0 340s-.6 157.7 8.2 176c4.6 9.4 6.1 11.5 15.2 20.6 9.1 9.1 11.2 10.6 20.6 15.2 18.6 8.9-4.7 8.2 256 8.2s237.4.7 256-8.2c9.4-4.6 11.5-6.1 20.6-15.2 9.1-9.1 10.6-11.2 15.2-20.6 8.8-18.3 8.2-5.2 8.2-176s.6-157.7-8.2-176c-4.6-9.4-6.1-11.5-15.2-20.6-9.1-9.1-11.2-10.6-20.6-15.2-16.5-7.9-18.6-8.2-65.2-8.2h-40.3l-7.9-21.3c-9.3-24.9-12.1-30.6-18.7-38-5.8-6.5-17.3-14.5-25.6-17.9l-5.8-2.3-91-.2-91-.3-6.6 2.3zm120.6 160.3c49.8 8.1 94.9 48.1 109.4 97 7.1 24.1 7.1 56.7 0 80.8-12.7 42.8-50.7 80.8-93.5 93.5-24.1 7.1-56.7 7.1-80.8 0-42.8-12.7-80.8-50.7-93.5-93.5-7.1-24.1-7.1-56.7 0-80.8 12.7-42.8 51-81.1 93.5-93.4 20.2-5.9 43-7.2 64.9-3.6z"/><path d="M280.3 251.6c-9.1 2-20.9 6.8-28.3 11.6-8.4 5.4-23.4 20.4-28.8 28.8-8.9 13.7-13.2 29.5-13.2 48 0 26.3 7.7 44.8 26.4 63.6 18.8 18.7 37.3 26.4 63.6 26.4 26.3 0 44.8-7.7 63.6-26.4 13.9-14 21.2-27 24.9-44.7 1.9-9 1.9-28.7.1-37.6-3.7-17.6-12.7-33.4-26.3-46.4-13.3-12.7-26.6-19.9-43.4-23.4-8.7-1.9-30-1.8-38.6.1z"/></svg>