<svg version="1" xmlns="http://www.w3.org/2000/svg" width="800" height="800" viewBox="0 0 600.000000 600.000000"><path d="M209.3 41.5c-13 2.9-28.1 12.9-36.1 23.7-5 6.9-4.9 6.8-14.5 32.3l-8.3 22-41.9.6c-46.3.7-48.2.9-61.8 7.3-15.8 7.4-30.8 21.9-38.5 37.2-2 3.8-5.2 13.4-6.9 19.9-.4 1.6-.9 70.7-1 153.5C.1 483.6.1 488.8 2 497.3c6.6 29.9 30.6 53.9 60.7 60.7 8.7 1.9 12.5 1.9 239.3 1.7 126.8-.1 231.9-.6 233.5-1 17.6-4.5 28.4-10.3 40.3-21.9 12.1-11.8 20.4-27.2 22.9-42.7.5-2.5.8-72.6.8-155.6 0-144.5-.1-151.3-1.9-158-6.2-23.3-23.4-43.7-45-53.5-13.1-6-16.3-6.3-61.5-6.9l-41.5-.6-8.7-23.2c-5.1-13.6-10.3-25.5-12.4-28.7-7-10.5-19.6-20.1-32.5-24.8l-6.5-2.3-87-.2c-70.5-.1-88.2.1-93.2 1.2zm121.1 161.4c26.6 6.2 47.5 17.7 67.7 37.5 19.9 19.5 32.7 42.1 39 69.2 1.5 6.8 2.1 13.2 2.4 26.9.5 27.5-2.8 43.3-13.5 65-13.8 27.8-37.6 51.5-65.5 65.1-18.9 9.2-36.6 13.1-60 13.3-23.2.2-42-4-62-13.9-33.1-16.4-60.3-47.3-71.5-81-9.2-27.6-9.2-63.2.1-90.4 14.5-42.6 53.1-78.8 96.3-90.2 12.5-3.3 21.8-4.2 40.1-3.9 13.7.3 20.1.9 26.9 2.4z"/><path d="M293 250.3c-.3.2-3.2.7-6.5 1-33.2 3.2-66.2 33.5-74.1 68.2-2.6 11.5-2.4 32.1.5 43 7.7 28.9 30.9 53.8 58.7 62.9 21 6.9 46.7 5.3 66.3-3.9 27-12.8 47.7-40.5 50.9-68 .9-7.6.8-22.6-.1-28.7-5.4-35.3-36.2-66.6-72.2-73.3-4.4-.8-22.9-1.8-23.5-1.2z"/></svg>